<svg xmlns="http://www.w3.org/2000/svg" viewBox="0 0 140 100" fill="none" stroke="#2C2C2C" stroke-width="2" stroke-linecap="round" stroke-linejoin="round">
  <!-- Truck cabin -->
  <path d="M85 30 L115 30 L125 50 L125 70 L85 70 Z" stroke-width="2.5"/>
  <!-- Windshield -->
  <path d="M100 30 L100 50 L125 50" stroke-width="2"/>
  <!-- Truck body -->
  <rect x="20" y="20" width="65" height="50" rx="2" stroke-width="2.5"/>
  <!-- Gift box -->
  <rect x="38" y="35" width="28" height="22" rx="1" stroke-width="2"/>
  <path d="M52 35 L52 57" stroke-width="1.5"/>
  <path d="M38 44 L66 44" stroke-width="1.5"/>
  <!-- Gift ribbon -->
  <path d="M46 35 Q52 28 58 35" stroke-width="1.5"/>
  <!-- Wheels -->
  <circle cx="42" cy="74" r="8" stroke-width="2.5" fill="white"/>
  <circle cx="42" cy="74" r="3" fill="#2C2C2C" stroke="none"/>
  <circle cx="108" cy="74" r="8" stroke-width="2.5" fill="white"/>
  <circle cx="108" cy="74" r="3" fill="#2C2C2C" stroke="none"/>
  <!-- Ground line -->
  <path d="M10 82 L135 82" stroke-width="1.5" stroke-dasharray="4 3"/>
  <!-- Arrow above truck -->
  <path d="M75 10 L90 10" stroke-width="2"/>
  <path d="M84 5 L90 10 L84 15" stroke-width="2"/>
</svg>
