<svg xmlns="http://www.w3.org/2000/svg" width="32" height="32" viewBox="0 0 32 32" fill="none">
  <path d="M16 24c0 0-5-3-7-8s0-10 0-10c2 2 5 3 7 3s5-1 7-3c0 0 2 5 0 10s-7 8-7 8z" stroke="#A8B5A0" stroke-width="1.6" fill="none" stroke-linecap="round" stroke-linejoin="round"/>
  <path d="M16 24c0 0-8-1-12-5 3-1 6 0 8 1" stroke="#A8B5A0" stroke-width="1.4" fill="none" stroke-linecap="round"/>
  <path d="M16 24c0 0 8-1 12-5-3-1-6 0-8 1" stroke="#A8B5A0" stroke-width="1.4" fill="none" stroke-linecap="round"/>
  <circle cx="16" cy="15" r="2" fill="#A8B5A0" opacity="0.4"/>
</svg>
